<svg xmlns="http://www.w3.org/2000/svg" xmlns:xlink="http://www.w3.org/1999/xlink" width="400" zoomAndPan="magnify" viewBox="0 0 300 135.000003" height="180" preserveAspectRatio="xMidYMid meet" version="1.0"><defs><g/></defs><g fill="#000000" fill-opacity="1"><g transform="translate(4.876656, 67.659504)"><g><path d="M 5.765625 -0.5 L 12.359375 -0.5 C 13.015625 -0.5 13.53125 -0.675781 13.90625 -1.03125 C 14.289062 -1.382812 14.484375 -1.796875 14.484375 -2.265625 C 14.484375 -2.734375 14.289062 -3.144531 13.90625 -3.5 C 13.53125 -3.851562 13.015625 -4.03125 12.359375 -4.03125 L 5.765625 -4.03125 C 5.109375 -4.03125 4.585938 -3.851562 4.203125 -3.5 C 3.828125 -3.144531 3.640625 -2.734375 3.640625 -2.265625 C 3.640625 -1.796875 3.828125 -1.382812 4.203125 -1.03125 C 4.585938 -0.675781 5.109375 -0.5 5.765625 -0.5 Z M 5.765625 -5.03125 L 12.359375 -5.03125 C 13.015625 -5.03125 13.53125 -5.207031 13.90625 -5.5625 C 14.289062 -5.914062 14.484375 -6.328125 14.484375 -6.796875 C 14.484375 -7.265625 14.289062 -7.675781 13.90625 -8.03125 C 13.53125 -8.382812 13.015625 -8.5625 12.359375 -8.5625 L 5.765625 -8.5625 C 5.109375 -8.5625 4.585938 -8.382812 4.203125 -8.03125 C 3.828125 -7.675781 3.640625 -7.265625 3.640625 -6.796875 C 3.640625 -6.328125 3.828125 -5.914062 4.203125 -5.5625 C 4.585938 -5.207031 5.109375 -5.03125 5.765625 -5.03125 Z M 5.765625 -9.5625 L 12.359375 -9.5625 C 13.015625 -9.5625 13.53125 -9.738281 13.90625 -10.09375 C 14.289062 -10.445312 14.484375 -10.859375 14.484375 -11.328125 C 14.484375 -11.796875 14.289062 -12.207031 13.90625 -12.5625 C 13.53125 -12.914062 13.015625 -13.09375 12.359375 -13.09375 L 5.765625 -13.09375 C 5.109375 -13.09375 4.585938 -12.914062 4.203125 -12.5625 C 3.828125 -12.207031 3.640625 -11.796875 3.640625 -11.328125 C 3.640625 -10.859375 3.828125 -10.445312 4.203125 -10.09375 C 4.585938 -9.738281 5.109375 -9.5625 5.765625 -9.5625 Z M 5.765625 -14.09375 L 25.953125 -14.09375 C 26.609375 -14.09375 27.125 -14.269531 27.5 -14.625 C 27.882812 -14.976562 28.078125 -15.390625 28.078125 -15.859375 C 28.078125 -16.328125 27.882812 -16.738281 27.5 -17.09375 C 27.125 -17.445312 26.609375 -17.625 25.953125 -17.625 L 5.765625 -17.625 C 5.109375 -17.625 4.585938 -17.445312 4.203125 -17.09375 C 3.828125 -16.738281 3.640625 -16.328125 3.640625 -15.859375 C 3.640625 -15.390625 3.828125 -14.976562 4.203125 -14.625 C 4.585938 -14.269531 5.109375 -14.09375 5.765625 -14.09375 Z M 5.765625 -18.625 L 12.359375 -18.625 C 13.015625 -18.625 13.53125 -18.800781 13.90625 -19.15625 C 14.289062 -19.507812 14.484375 -19.921875 14.484375 -20.390625 C 14.484375 -20.859375 14.289062 -21.269531 13.90625 -21.625 C 13.53125 -21.976562 13.015625 -22.15625 12.359375 -22.15625 L 5.765625 -22.15625 C 5.109375 -22.15625 4.585938 -21.976562 4.203125 -21.625 C 3.828125 -21.269531 3.640625 -20.859375 3.640625 -20.390625 C 3.640625 -19.921875 3.828125 -19.507812 4.203125 -19.15625 C 4.585938 -18.800781 5.109375 -18.625 5.765625 -18.625 Z M 23.890625 -18.625 L 30.484375 -18.625 C 31.140625 -18.625 31.65625 -18.800781 32.03125 -19.15625 C 32.414062 -19.507812 32.609375 -19.921875 32.609375 -20.390625 C 32.609375 -20.859375 32.414062 -21.269531 32.03125 -21.625 C 31.65625 -21.976562 31.140625 -22.15625 30.484375 -22.15625 L 23.890625 -22.15625 C 23.234375 -22.15625 22.710938 -21.976562 22.328125 -21.625 C 21.953125 -21.269531 21.765625 -20.859375 21.765625 -20.390625 C 21.765625 -19.921875 21.953125 -19.507812 22.328125 -19.15625 C 22.710938 -18.800781 23.234375 -18.625 23.890625 -18.625 Z M 5.765625 -23.15625 L 12.359375 -23.15625 C 13.015625 -23.15625 13.53125 -23.332031 13.90625 -23.6875 C 14.289062 -24.039062 14.484375 -24.453125 14.484375 -24.921875 C 14.484375 -25.390625 14.289062 -25.800781 13.90625 -26.15625 C 13.53125 -26.507812 13.015625 -26.6875 12.359375 -26.6875 L 5.765625 -26.6875 C 5.109375 -26.6875 4.585938 -26.507812 4.203125 -26.15625 C 3.828125 -25.800781 3.640625 -25.390625 3.640625 -24.921875 C 3.640625 -24.453125 3.828125 -24.039062 4.203125 -23.6875 C 4.585938 -23.332031 5.109375 -23.15625 5.765625 -23.15625 Z M 23.890625 -23.15625 L 30.484375 -23.15625 C 31.140625 -23.15625 31.65625 -23.332031 32.03125 -23.6875 C 32.414062 -24.039062 32.609375 -24.453125 32.609375 -24.921875 C 32.609375 -25.390625 32.414062 -25.800781 32.03125 -26.15625 C 31.65625 -26.507812 31.140625 -26.6875 30.484375 -26.6875 L 23.890625 -26.6875 C 23.234375 -26.6875 22.710938 -26.507812 22.328125 -26.15625 C 21.953125 -25.800781 21.765625 -25.390625 21.765625 -24.921875 C 21.765625 -24.453125 21.953125 -24.039062 22.328125 -23.6875 C 22.710938 -23.332031 23.234375 -23.15625 23.890625 -23.15625 Z M 5.765625 -27.6875 L 25.953125 -27.6875 C 26.609375 -27.6875 27.125 -27.863281 27.5 -28.21875 C 27.882812 -28.570312 28.078125 -28.984375 28.078125 -29.453125 C 28.078125 -29.921875 27.882812 -30.332031 27.5 -30.6875 C 27.125 -31.039062 26.609375 -31.21875 25.953125 -31.21875 L 5.765625 -31.21875 C 5.109375 -31.21875 4.585938 -31.039062 4.203125 -30.6875 C 3.828125 -30.332031 3.640625 -29.921875 3.640625 -29.453125 C 3.640625 -28.984375 3.828125 -28.570312 4.203125 -28.21875 C 4.585938 -27.863281 5.109375 -27.6875 5.765625 -27.6875 Z M 5.765625 -27.6875 "/></g></g></g><g fill="#000000" fill-opacity="1"><g transform="translate(36.624867, 67.659504)"><g><path d="M 10.296875 -0.5 L 25.953125 -0.5 C 26.609375 -0.5 27.125 -0.675781 27.5 -1.03125 C 27.882812 -1.382812 28.078125 -1.796875 28.078125 -2.265625 C 28.078125 -2.734375 27.882812 -3.144531 27.5 -3.5 C 27.125 -3.851562 26.609375 -4.03125 25.953125 -4.03125 L 10.296875 -4.03125 C 9.640625 -4.03125 9.117188 -3.851562 8.734375 -3.5 C 8.359375 -3.144531 8.171875 -2.734375 8.171875 -2.265625 C 8.171875 -1.796875 8.359375 -1.382812 8.734375 -1.03125 C 9.117188 -0.675781 9.640625 -0.5 10.296875 -0.5 Z M 5.765625 -5.03125 L 12.359375 -5.03125 C 13.015625 -5.03125 13.53125 -5.207031 13.90625 -5.5625 C 14.289062 -5.914062 14.484375 -6.328125 14.484375 -6.796875 C 14.484375 -7.265625 14.289062 -7.675781 13.90625 -8.03125 C 13.53125 -8.382812 13.015625 -8.5625 12.359375 -8.5625 L 5.765625 -8.5625 C 5.109375 -8.5625 4.585938 -8.382812 4.203125 -8.03125 C 3.828125 -7.675781 3.640625 -7.265625 3.640625 -6.796875 C 3.640625 -6.328125 3.828125 -5.914062 4.203125 -5.5625 C 4.585938 -5.207031 5.109375 -5.03125 5.765625 -5.03125 Z M 23.890625 -5.03125 L 30.484375 -5.03125 C 31.140625 -5.03125 31.65625 -5.207031 32.03125 -5.5625 C 32.414062 -5.914062 32.609375 -6.328125 32.609375 -6.796875 C 32.609375 -7.265625 32.414062 -7.675781 32.03125 -8.03125 C 31.65625 -8.382812 31.140625 -8.5625 30.484375 -8.5625 L 23.890625 -8.5625 C 23.234375 -8.5625 22.710938 -8.382812 22.328125 -8.03125 C 21.953125 -7.675781 21.765625 -7.265625 21.765625 -6.796875 C 21.765625 -6.328125 21.953125 -5.914062 22.328125 -5.5625 C 22.710938 -5.207031 23.234375 -5.03125 23.890625 -5.03125 Z M 5.765625 -9.5625 L 12.359375 -9.5625 C 13.015625 -9.5625 13.53125 -9.738281 13.90625 -10.09375 C 14.289062 -10.445312 14.484375 -10.859375 14.484375 -11.328125 C 14.484375 -11.796875 14.289062 -12.207031 13.90625 -12.5625 C 13.53125 -12.914062 13.015625 -13.09375 12.359375 -13.09375 L 5.765625 -13.09375 C 5.109375 -13.09375 4.585938 -12.914062 4.203125 -12.5625 C 3.828125 -12.207031 3.640625 -11.796875 3.640625 -11.328125 C 3.640625 -10.859375 3.828125 -10.445312 4.203125 -10.09375 C 4.585938 -9.738281 5.109375 -9.5625 5.765625 -9.5625 Z M 23.890625 -9.5625 L 30.484375 -9.5625 C 31.140625 -9.5625 31.65625 -9.738281 32.03125 -10.09375 C 32.414062 -10.445312 32.609375 -10.859375 32.609375 -11.328125 C 32.609375 -11.796875 32.414062 -12.207031 32.03125 -12.5625 C 31.65625 -12.914062 31.140625 -13.09375 30.484375 -13.09375 L 23.890625 -13.09375 C 23.234375 -13.09375 22.710938 -12.914062 22.328125 -12.5625 C 21.953125 -12.207031 21.765625 -11.796875 21.765625 -11.328125 C 21.765625 -10.859375 21.953125 -10.445312 22.328125 -10.09375 C 22.710938 -9.738281 23.234375 -9.5625 23.890625 -9.5625 Z M 5.765625 -14.09375 L 12.359375 -14.09375 C 13.015625 -14.09375 13.53125 -14.269531 13.90625 -14.625 C 14.289062 -14.976562 14.484375 -15.390625 14.484375 -15.859375 C 14.484375 -16.328125 14.289062 -16.738281 13.90625 -17.09375 C 13.53125 -17.445312 13.015625 -17.625 12.359375 -17.625 L 5.765625 -17.625 C 5.109375 -17.625 4.585938 -17.445312 4.203125 -17.09375 C 3.828125 -16.738281 3.640625 -16.328125 3.640625 -15.859375 C 3.640625 -15.390625 3.828125 -14.976562 4.203125 -14.625 C 4.585938 -14.269531 5.109375 -14.09375 5.765625 -14.09375 Z M 23.890625 -14.09375 L 30.484375 -14.09375 C 31.140625 -14.09375 31.65625 -14.269531 32.03125 -14.625 C 32.414062 -14.976562 32.609375 -15.390625 32.609375 -15.859375 C 32.609375 -16.328125 32.414062 -16.738281 32.03125 -17.09375 C 31.65625 -17.445312 31.140625 -17.625 30.484375 -17.625 L 23.890625 -17.625 C 23.234375 -17.625 22.710938 -17.445312 22.328125 -17.09375 C 21.953125 -16.738281 21.765625 -16.328125 21.765625 -15.859375 C 21.765625 -15.390625 21.953125 -14.976562 22.328125 -14.625 C 22.710938 -14.269531 23.234375 -14.09375 23.890625 -14.09375 Z M 10.296875 -18.625 L 25.953125 -18.625 C 26.609375 -18.625 27.125 -18.800781 27.5 -19.15625 C 27.882812 -19.507812 28.078125 -19.921875 28.078125 -20.390625 C 28.078125 -20.859375 27.882812 -21.269531 27.5 -21.625 C 27.125 -21.976562 26.609375 -22.15625 25.953125 -22.15625 L 10.296875 -22.15625 C 9.640625 -22.15625 9.117188 -21.976562 8.734375 -21.625 C 8.359375 -21.269531 8.171875 -20.859375 8.171875 -20.390625 C 8.171875 -19.921875 8.359375 -19.507812 8.734375 -19.15625 C 9.117188 -18.800781 9.640625 -18.625 10.296875 -18.625 Z M 10.296875 -18.625 "/></g></g></g><g fill="#000000" fill-opacity="1"><g transform="translate(68.373078, 67.659504)"><g><path d="M 5.765625 -0.5 L 12.359375 -0.5 C 13.015625 -0.5 13.53125 -0.675781 13.90625 -1.03125 C 14.289062 -1.382812 14.484375 -1.796875 14.484375 -2.265625 C 14.484375 -2.734375 14.289062 -3.144531 13.90625 -3.5 C 13.53125 -3.851562 13.015625 -4.03125 12.359375 -4.03125 L 5.765625 -4.03125 C 5.109375 -4.03125 4.585938 -3.851562 4.203125 -3.5 C 3.828125 -3.144531 3.640625 -2.734375 3.640625 -2.265625 C 3.640625 -1.796875 3.828125 -1.382812 4.203125 -1.03125 C 4.585938 -0.675781 5.109375 -0.5 5.765625 -0.5 Z M 5.765625 -5.03125 L 12.359375 -5.03125 C 13.015625 -5.03125 13.53125 -5.207031 13.90625 -5.5625 C 14.289062 -5.914062 14.484375 -6.328125 14.484375 -6.796875 C 14.484375 -7.265625 14.289062 -7.675781 13.90625 -8.03125 C 13.53125 -8.382812 13.015625 -8.5625 12.359375 -8.5625 L 5.765625 -8.5625 C 5.109375 -8.5625 4.585938 -8.382812 4.203125 -8.03125 C 3.828125 -7.675781 3.640625 -7.265625 3.640625 -6.796875 C 3.640625 -6.328125 3.828125 -5.914062 4.203125 -5.5625 C 4.585938 -5.207031 5.109375 -5.03125 5.765625 -5.03125 Z M 5.765625 -9.5625 L 12.359375 -9.5625 C 13.015625 -9.5625 13.53125 -9.738281 13.90625 -10.09375 C 14.289062 -10.445312 14.484375 -10.859375 14.484375 -11.328125 C 14.484375 -11.796875 14.289062 -12.207031 13.90625 -12.5625 C 13.53125 -12.914062 13.015625 -13.09375 12.359375 -13.09375 L 5.765625 -13.09375 C 5.109375 -13.09375 4.585938 -12.914062 4.203125 -12.5625 C 3.828125 -12.207031 3.640625 -11.796875 3.640625 -11.328125 C 3.640625 -10.859375 3.828125 -10.445312 4.203125 -10.09375 C 4.585938 -9.738281 5.109375 -9.5625 5.765625 -9.5625 Z M 5.765625 -14.09375 L 12.359375 -14.09375 C 13.015625 -14.09375 13.53125 -14.269531 13.90625 -14.625 C 14.289062 -14.976562 14.484375 -15.390625 14.484375 -15.859375 C 14.484375 -16.328125 14.289062 -16.738281 13.90625 -17.09375 C 13.53125 -17.445312 13.015625 -17.625 12.359375 -17.625 L 5.765625 -17.625 C 5.109375 -17.625 4.585938 -17.445312 4.203125 -17.09375 C 3.828125 -16.738281 3.640625 -16.328125 3.640625 -15.859375 C 3.640625 -15.390625 3.828125 -14.976562 4.203125 -14.625 C 4.585938 -14.269531 5.109375 -14.09375 5.765625 -14.09375 Z M 23.890625 -14.09375 L 30.484375 -14.09375 C 31.140625 -14.09375 31.65625 -14.269531 32.03125 -14.625 C 32.414062 -14.976562 32.609375 -15.390625 32.609375 -15.859375 C 32.609375 -16.328125 32.414062 -16.738281 32.03125 -17.09375 C 31.65625 -17.445312 31.140625 -17.625 30.484375 -17.625 L 23.890625 -17.625 C 23.234375 -17.625 22.710938 -17.445312 22.328125 -17.09375 C 21.953125 -16.738281 21.765625 -16.328125 21.765625 -15.859375 C 21.765625 -15.390625 21.953125 -14.976562 22.328125 -14.625 C 22.710938 -14.269531 23.234375 -14.09375 23.890625 -14.09375 Z M 5.765625 -18.625 L 25.953125 -18.625 C 26.609375 -18.625 27.125 -18.800781 27.5 -19.15625 C 27.882812 -19.507812 28.078125 -19.921875 28.078125 -20.390625 C 28.078125 -20.859375 27.882812 -21.269531 27.5 -21.625 C 27.125 -21.976562 26.609375 -22.15625 25.953125 -22.15625 L 5.765625 -22.15625 C 5.109375 -22.15625 4.585938 -21.976562 4.203125 -21.625 C 3.828125 -21.269531 3.640625 -20.859375 3.640625 -20.390625 C 3.640625 -19.921875 3.828125 -19.507812 4.203125 -19.15625 C 4.585938 -18.800781 5.109375 -18.625 5.765625 -18.625 Z M 5.765625 -18.625 "/></g></g></g><g fill="#000000" fill-opacity="1"><g transform="translate(100.121289, 67.659504)"><g><path d="M 19.359375 -0.5 L 30.484375 -0.5 C 31.140625 -0.5 31.65625 -0.675781 32.03125 -1.03125 C 32.414062 -1.382812 32.609375 -1.796875 32.609375 -2.265625 C 32.609375 -2.734375 32.414062 -3.144531 32.03125 -3.5 C 31.65625 -3.851562 31.140625 -4.03125 30.484375 -4.03125 L 19.359375 -4.03125 C 18.703125 -4.03125 18.179688 -3.851562 17.796875 -3.5 C 17.421875 -3.144531 17.234375 -2.734375 17.234375 -2.265625 C 17.234375 -1.796875 17.421875 -1.382812 17.796875 -1.03125 C 18.179688 -0.675781 18.703125 -0.5 19.359375 -0.5 Z M 14.828125 -5.03125 L 21.421875 -5.03125 C 22.078125 -5.03125 22.59375 -5.207031 22.96875 -5.5625 C 23.351562 -5.914062 23.546875 -6.328125 23.546875 -6.796875 C 23.546875 -7.265625 23.351562 -7.675781 22.96875 -8.03125 C 22.59375 -8.382812 22.078125 -8.5625 21.421875 -8.5625 L 14.828125 -8.5625 C 14.171875 -8.5625 13.648438 -8.382812 13.265625 -8.03125 C 12.890625 -7.675781 12.703125 -7.265625 12.703125 -6.796875 C 12.703125 -6.328125 12.890625 -5.914062 13.265625 -5.5625 C 13.648438 -5.207031 14.171875 -5.03125 14.828125 -5.03125 Z M 14.828125 -9.5625 L 21.421875 -9.5625 C 22.078125 -9.5625 22.59375 -9.738281 22.96875 -10.09375 C 23.351562 -10.445312 23.546875 -10.859375 23.546875 -11.328125 C 23.546875 -11.796875 23.351562 -12.207031 22.96875 -12.5625 C 22.59375 -12.914062 22.078125 -13.09375 21.421875 -13.09375 L 14.828125 -13.09375 C 14.171875 -13.09375 13.648438 -12.914062 13.265625 -12.5625 C 12.890625 -12.207031 12.703125 -11.796875 12.703125 -11.328125 C 12.703125 -10.859375 12.890625 -10.445312 13.265625 -10.09375 C 13.648438 -9.738281 14.171875 -9.5625 14.828125 -9.5625 Z M 14.828125 -14.09375 L 21.421875 -14.09375 C 22.078125 -14.09375 22.59375 -14.269531 22.96875 -14.625 C 23.351562 -14.976562 23.546875 -15.390625 23.546875 -15.859375 C 23.546875 -16.328125 23.351562 -16.738281 22.96875 -17.09375 C 22.59375 -17.445312 22.078125 -17.625 21.421875 -17.625 L 14.828125 -17.625 C 14.171875 -17.625 13.648438 -17.445312 13.265625 -17.09375 C 12.890625 -16.738281 12.703125 -16.328125 12.703125 -15.859375 C 12.703125 -15.390625 12.890625 -14.976562 13.265625 -14.625 C 13.648438 -14.269531 14.171875 -14.09375 14.828125 -14.09375 Z M 5.765625 -18.625 L 30.484375 -18.625 C 31.140625 -18.625 31.65625 -18.800781 32.03125 -19.15625 C 32.414062 -19.507812 32.609375 -19.921875 32.609375 -20.390625 C 32.609375 -20.859375 32.414062 -21.269531 32.03125 -21.625 C 31.65625 -21.976562 31.140625 -22.15625 30.484375 -22.15625 L 5.765625 -22.15625 C 5.109375 -22.15625 4.585938 -21.976562 4.203125 -21.625 C 3.828125 -21.269531 3.640625 -20.859375 3.640625 -20.390625 C 3.640625 -19.921875 3.828125 -19.507812 4.203125 -19.15625 C 4.585938 -18.800781 5.109375 -18.625 5.765625 -18.625 Z M 14.828125 -23.15625 L 21.421875 -23.15625 C 22.078125 -23.15625 22.59375 -23.332031 22.96875 -23.6875 C 23.351562 -24.039062 23.546875 -24.453125 23.546875 -24.921875 C 23.546875 -25.390625 23.351562 -25.800781 22.96875 -26.15625 C 22.59375 -26.507812 22.078125 -26.6875 21.421875 -26.6875 L 14.828125 -26.6875 C 14.171875 -26.6875 13.648438 -26.507812 13.265625 -26.15625 C 12.890625 -25.800781 12.703125 -25.390625 12.703125 -24.921875 C 12.703125 -24.453125 12.890625 -24.039062 13.265625 -23.6875 C 13.648438 -23.332031 14.171875 -23.15625 14.828125 -23.15625 Z M 14.828125 -23.15625 "/></g></g></g><g fill="#000000" fill-opacity="1"><g transform="translate(131.8695, 67.659504)"><g><path d="M 14.828125 -0.5 L 21.421875 -0.5 C 22.078125 -0.5 22.59375 -0.675781 22.96875 -1.03125 C 23.351562 -1.382812 23.546875 -1.796875 23.546875 -2.265625 C 23.546875 -2.734375 23.351562 -3.144531 22.96875 -3.5 C 22.59375 -3.851562 22.078125 -4.03125 21.421875 -4.03125 L 14.828125 -4.03125 C 14.171875 -4.03125 13.648438 -3.851562 13.265625 -3.5 C 12.890625 -3.144531 12.703125 -2.734375 12.703125 -2.265625 C 12.703125 -1.796875 12.890625 -1.382812 13.265625 -1.03125 C 13.648438 -0.675781 14.171875 -0.5 14.828125 -0.5 Z M 14.828125 -5.03125 L 21.421875 -5.03125 C 22.078125 -5.03125 22.59375 -5.207031 22.96875 -5.5625 C 23.351562 -5.914062 23.546875 -6.328125 23.546875 -6.796875 C 23.546875 -7.265625 23.351562 -7.675781 22.96875 -8.03125 C 22.59375 -8.382812 22.078125 -8.5625 21.421875 -8.5625 L 14.828125 -8.5625 C 14.171875 -8.5625 13.648438 -8.382812 13.265625 -8.03125 C 12.890625 -7.675781 12.703125 -7.265625 12.703125 -6.796875 C 12.703125 -6.328125 12.890625 -5.914062 13.265625 -5.5625 C 13.648438 -5.207031 14.171875 -5.03125 14.828125 -5.03125 Z M 14.828125 -9.5625 L 21.421875 -9.5625 C 22.078125 -9.5625 22.59375 -9.738281 22.96875 -10.09375 C 23.351562 -10.445312 23.546875 -10.859375 23.546875 -11.328125 C 23.546875 -11.796875 23.351562 -12.207031 22.96875 -12.5625 C 22.59375 -12.914062 22.078125 -13.09375 21.421875 -13.09375 L 14.828125 -13.09375 C 14.171875 -13.09375 13.648438 -12.914062 13.265625 -12.5625 C 12.890625 -12.207031 12.703125 -11.796875 12.703125 -11.328125 C 12.703125 -10.859375 12.890625 -10.445312 13.265625 -10.09375 C 13.648438 -9.738281 14.171875 -9.5625 14.828125 -9.5625 Z M 10.296875 -14.09375 L 30.484375 -14.09375 C 31.140625 -14.09375 31.65625 -14.269531 32.03125 -14.625 C 32.414062 -14.976562 32.609375 -15.390625 32.609375 -15.859375 C 32.609375 -16.328125 32.414062 -16.738281 32.03125 -17.09375 C 31.65625 -17.445312 31.140625 -17.625 30.484375 -17.625 L 10.296875 -17.625 C 9.640625 -17.625 9.117188 -17.445312 8.734375 -17.09375 C 8.359375 -16.738281 8.171875 -16.328125 8.171875 -15.859375 C 8.171875 -15.390625 8.359375 -14.976562 8.734375 -14.625 C 9.117188 -14.269531 9.640625 -14.09375 10.296875 -14.09375 Z M 14.828125 -18.625 L 21.421875 -18.625 C 22.078125 -18.625 22.59375 -18.800781 22.96875 -19.15625 C 23.351562 -19.507812 23.546875 -19.921875 23.546875 -20.390625 C 23.546875 -20.859375 23.351562 -21.269531 22.96875 -21.625 C 22.59375 -21.976562 22.078125 -22.15625 21.421875 -22.15625 L 14.828125 -22.15625 C 14.171875 -22.15625 13.648438 -21.976562 13.265625 -21.625 C 12.890625 -21.269531 12.703125 -20.859375 12.703125 -20.390625 C 12.703125 -19.921875 12.890625 -19.507812 13.265625 -19.15625 C 13.648438 -18.800781 14.171875 -18.625 14.828125 -18.625 Z M 19.359375 -23.15625 L 30.484375 -23.15625 C 31.140625 -23.15625 31.65625 -23.332031 32.03125 -23.6875 C 32.414062 -24.039062 32.609375 -24.453125 32.609375 -24.921875 C 32.609375 -25.390625 32.414062 -25.800781 32.03125 -26.15625 C 31.65625 -26.507812 31.140625 -26.6875 30.484375 -26.6875 L 19.359375 -26.6875 C 18.703125 -26.6875 18.179688 -26.507812 17.796875 -26.15625 C 17.421875 -25.800781 17.234375 -25.390625 17.234375 -24.921875 C 17.234375 -24.453125 17.421875 -24.039062 17.796875 -23.6875 C 18.179688 -23.332031 18.703125 -23.15625 19.359375 -23.15625 Z M 19.359375 -23.15625 "/></g></g></g><g fill="#000000" fill-opacity="1"><g transform="translate(163.61771, 67.659504)"><g><path d="M 10.296875 -0.5 L 25.953125 -0.5 C 26.609375 -0.5 27.125 -0.675781 27.5 -1.03125 C 27.882812 -1.382812 28.078125 -1.796875 28.078125 -2.265625 C 28.078125 -2.734375 27.882812 -3.144531 27.5 -3.5 C 27.125 -3.851562 26.609375 -4.03125 25.953125 -4.03125 L 10.296875 -4.03125 C 9.640625 -4.03125 9.117188 -3.851562 8.734375 -3.5 C 8.359375 -3.144531 8.171875 -2.734375 8.171875 -2.265625 C 8.171875 -1.796875 8.359375 -1.382812 8.734375 -1.03125 C 9.117188 -0.675781 9.640625 -0.5 10.296875 -0.5 Z M 5.765625 -5.03125 L 12.359375 -5.03125 C 13.015625 -5.03125 13.53125 -5.207031 13.90625 -5.5625 C 14.289062 -5.914062 14.484375 -6.328125 14.484375 -6.796875 C 14.484375 -7.265625 14.289062 -7.675781 13.90625 -8.03125 C 13.53125 -8.382812 13.015625 -8.5625 12.359375 -8.5625 L 5.765625 -8.5625 C 5.109375 -8.5625 4.585938 -8.382812 4.203125 -8.03125 C 3.828125 -7.675781 3.640625 -7.265625 3.640625 -6.796875 C 3.640625 -6.328125 3.828125 -5.914062 4.203125 -5.5625 C 4.585938 -5.207031 5.109375 -5.03125 5.765625 -5.03125 Z M 23.890625 -5.03125 L 30.484375 -5.03125 C 31.140625 -5.03125 31.65625 -5.207031 32.03125 -5.5625 C 32.414062 -5.914062 32.609375 -6.328125 32.609375 -6.796875 C 32.609375 -7.265625 32.414062 -7.675781 32.03125 -8.03125 C 31.65625 -8.382812 31.140625 -8.5625 30.484375 -8.5625 L 23.890625 -8.5625 C 23.234375 -8.5625 22.710938 -8.382812 22.328125 -8.03125 C 21.953125 -7.675781 21.765625 -7.265625 21.765625 -6.796875 C 21.765625 -6.328125 21.953125 -5.914062 22.328125 -5.5625 C 22.710938 -5.207031 23.234375 -5.03125 23.890625 -5.03125 Z M 5.765625 -9.5625 L 12.359375 -9.5625 C 13.015625 -9.5625 13.53125 -9.738281 13.90625 -10.09375 C 14.289062 -10.445312 14.484375 -10.859375 14.484375 -11.328125 C 14.484375 -11.796875 14.289062 -12.207031 13.90625 -12.5625 C 13.53125 -12.914062 13.015625 -13.09375 12.359375 -13.09375 L 5.765625 -13.09375 C 5.109375 -13.09375 4.585938 -12.914062 4.203125 -12.5625 C 3.828125 -12.207031 3.640625 -11.796875 3.640625 -11.328125 C 3.640625 -10.859375 3.828125 -10.445312 4.203125 -10.09375 C 4.585938 -9.738281 5.109375 -9.5625 5.765625 -9.5625 Z M 23.890625 -9.5625 L 30.484375 -9.5625 C 31.140625 -9.5625 31.65625 -9.738281 32.03125 -10.09375 C 32.414062 -10.445312 32.609375 -10.859375 32.609375 -11.328125 C 32.609375 -11.796875 32.414062 -12.207031 32.03125 -12.5625 C 31.65625 -12.914062 31.140625 -13.09375 30.484375 -13.09375 L 23.890625 -13.09375 C 23.234375 -13.09375 22.710938 -12.914062 22.328125 -12.5625 C 21.953125 -12.207031 21.765625 -11.796875 21.765625 -11.328125 C 21.765625 -10.859375 21.953125 -10.445312 22.328125 -10.09375 C 22.710938 -9.738281 23.234375 -9.5625 23.890625 -9.5625 Z M 5.765625 -14.09375 L 12.359375 -14.09375 C 13.015625 -14.09375 13.53125 -14.269531 13.90625 -14.625 C 14.289062 -14.976562 14.484375 -15.390625 14.484375 -15.859375 C 14.484375 -16.328125 14.289062 -16.738281 13.90625 -17.09375 C 13.53125 -17.445312 13.015625 -17.625 12.359375 -17.625 L 5.765625 -17.625 C 5.109375 -17.625 4.585938 -17.445312 4.203125 -17.09375 C 3.828125 -16.738281 3.640625 -16.328125 3.640625 -15.859375 C 3.640625 -15.390625 3.828125 -14.976562 4.203125 -14.625 C 4.585938 -14.269531 5.109375 -14.09375 5.765625 -14.09375 Z M 23.890625 -14.09375 L 30.484375 -14.09375 C 31.140625 -14.09375 31.65625 -14.269531 32.03125 -14.625 C 32.414062 -14.976562 32.609375 -15.390625 32.609375 -15.859375 C 32.609375 -16.328125 32.414062 -16.738281 32.03125 -17.09375 C 31.65625 -17.445312 31.140625 -17.625 30.484375 -17.625 L 23.890625 -17.625 C 23.234375 -17.625 22.710938 -17.445312 22.328125 -17.09375 C 21.953125 -16.738281 21.765625 -16.328125 21.765625 -15.859375 C 21.765625 -15.390625 21.953125 -14.976562 22.328125 -14.625 C 22.710938 -14.269531 23.234375 -14.09375 23.890625 -14.09375 Z M 10.296875 -18.625 L 25.953125 -18.625 C 26.609375 -18.625 27.125 -18.800781 27.5 -19.15625 C 27.882812 -19.507812 28.078125 -19.921875 28.078125 -20.390625 C 28.078125 -20.859375 27.882812 -21.269531 27.5 -21.625 C 27.125 -21.976562 26.609375 -22.15625 25.953125 -22.15625 L 10.296875 -22.15625 C 9.640625 -22.15625 9.117188 -21.976562 8.734375 -21.625 C 8.359375 -21.269531 8.171875 -20.859375 8.171875 -20.390625 C 8.171875 -19.921875 8.359375 -19.507812 8.734375 -19.15625 C 9.117188 -18.800781 9.640625 -18.625 10.296875 -18.625 Z M 10.296875 -18.625 "/></g></g></g><g fill="#000000" fill-opacity="1"><g transform="translate(195.365921, 67.659504)"><g><path d="M 10.296875 -0.5 L 25.953125 -0.5 C 26.609375 -0.5 27.125 -0.675781 27.5 -1.03125 C 27.882812 -1.382812 28.078125 -1.796875 28.078125 -2.265625 C 28.078125 -2.734375 27.882812 -3.144531 27.5 -3.5 C 27.125 -3.851562 26.609375 -4.03125 25.953125 -4.03125 L 10.296875 -4.03125 C 9.640625 -4.03125 9.117188 -3.851562 8.734375 -3.5 C 8.359375 -3.144531 8.171875 -2.734375 8.171875 -2.265625 C 8.171875 -1.796875 8.359375 -1.382812 8.734375 -1.03125 C 9.117188 -0.675781 9.640625 -0.5 10.296875 -0.5 Z M 14.828125 -5.03125 L 21.421875 -5.03125 C 22.078125 -5.03125 22.59375 -5.207031 22.96875 -5.5625 C 23.351562 -5.914062 23.546875 -6.328125 23.546875 -6.796875 C 23.546875 -7.265625 23.351562 -7.675781 22.96875 -8.03125 C 22.59375 -8.382812 22.078125 -8.5625 21.421875 -8.5625 L 14.828125 -8.5625 C 14.171875 -8.5625 13.648438 -8.382812 13.265625 -8.03125 C 12.890625 -7.675781 12.703125 -7.265625 12.703125 -6.796875 C 12.703125 -6.328125 12.890625 -5.914062 13.265625 -5.5625 C 13.648438 -5.207031 14.171875 -5.03125 14.828125 -5.03125 Z M 14.828125 -9.5625 L 21.421875 -9.5625 C 22.078125 -9.5625 22.59375 -9.738281 22.96875 -10.09375 C 23.351562 -10.445312 23.546875 -10.859375 23.546875 -11.328125 C 23.546875 -11.796875 23.351562 -12.207031 22.96875 -12.5625 C 22.59375 -12.914062 22.078125 -13.09375 21.421875 -13.09375 L 14.828125 -13.09375 C 14.171875 -13.09375 13.648438 -12.914062 13.265625 -12.5625 C 12.890625 -12.207031 12.703125 -11.796875 12.703125 -11.328125 C 12.703125 -10.859375 12.890625 -10.445312 13.265625 -10.09375 C 13.648438 -9.738281 14.171875 -9.5625 14.828125 -9.5625 Z M 14.828125 -14.09375 L 21.421875 -14.09375 C 22.078125 -14.09375 22.59375 -14.269531 22.96875 -14.625 C 23.351562 -14.976562 23.546875 -15.390625 23.546875 -15.859375 C 23.546875 -16.328125 23.351562 -16.738281 22.96875 -17.09375 C 22.59375 -17.445312 22.078125 -17.625 21.421875 -17.625 L 14.828125 -17.625 C 14.171875 -17.625 13.648438 -17.445312 13.265625 -17.09375 C 12.890625 -16.738281 12.703125 -16.328125 12.703125 -15.859375 C 12.703125 -15.390625 12.890625 -14.976562 13.265625 -14.625 C 13.648438 -14.269531 14.171875 -14.09375 14.828125 -14.09375 Z M 14.828125 -18.625 L 21.421875 -18.625 C 22.078125 -18.625 22.59375 -18.800781 22.96875 -19.15625 C 23.351562 -19.507812 23.546875 -19.921875 23.546875 -20.390625 C 23.546875 -20.859375 23.351562 -21.269531 22.96875 -21.625 C 22.59375 -21.976562 22.078125 -22.15625 21.421875 -22.15625 L 14.828125 -22.15625 C 14.171875 -22.15625 13.648438 -21.976562 13.265625 -21.625 C 12.890625 -21.269531 12.703125 -20.859375 12.703125 -20.390625 C 12.703125 -19.921875 12.890625 -19.507812 13.265625 -19.15625 C 13.648438 -18.800781 14.171875 -18.625 14.828125 -18.625 Z M 10.296875 -23.15625 L 21.421875 -23.15625 C 22.078125 -23.15625 22.59375 -23.332031 22.96875 -23.6875 C 23.351562 -24.039062 23.546875 -24.453125 23.546875 -24.921875 C 23.546875 -25.390625 23.351562 -25.800781 22.96875 -26.15625 C 22.59375 -26.507812 22.078125 -26.6875 21.421875 -26.6875 L 10.296875 -26.6875 C 9.640625 -26.6875 9.117188 -26.507812 8.734375 -26.15625 C 8.359375 -25.800781 8.171875 -25.390625 8.171875 -24.921875 C 8.171875 -24.453125 8.359375 -24.039062 8.734375 -23.6875 C 9.117188 -23.332031 9.640625 -23.15625 10.296875 -23.15625 Z M 10.296875 -23.15625 "/></g></g></g><g fill="#000000" fill-opacity="1"><g transform="translate(227.114132, 67.659504)"><g><path d="M 10.296875 -0.5 L 25.953125 -0.5 C 26.609375 -0.5 27.125 -0.675781 27.5 -1.03125 C 27.882812 -1.382812 28.078125 -1.796875 28.078125 -2.265625 C 28.078125 -2.734375 27.882812 -3.144531 27.5 -3.5 C 27.125 -3.851562 26.609375 -4.03125 25.953125 -4.03125 L 10.296875 -4.03125 C 9.640625 -4.03125 9.117188 -3.851562 8.734375 -3.5 C 8.359375 -3.144531 8.171875 -2.734375 8.171875 -2.265625 C 8.171875 -1.796875 8.359375 -1.382812 8.734375 -1.03125 C 9.117188 -0.675781 9.640625 -0.5 10.296875 -0.5 Z M 14.828125 -5.03125 L 21.421875 -5.03125 C 22.078125 -5.03125 22.59375 -5.207031 22.96875 -5.5625 C 23.351562 -5.914062 23.546875 -6.328125 23.546875 -6.796875 C 23.546875 -7.265625 23.351562 -7.675781 22.96875 -8.03125 C 22.59375 -8.382812 22.078125 -8.5625 21.421875 -8.5625 L 14.828125 -8.5625 C 14.171875 -8.5625 13.648438 -8.382812 13.265625 -8.03125 C 12.890625 -7.675781 12.703125 -7.265625 12.703125 -6.796875 C 12.703125 -6.328125 12.890625 -5.914062 13.265625 -5.5625 C 13.648438 -5.207031 14.171875 -5.03125 14.828125 -5.03125 Z M 14.828125 -9.5625 L 21.421875 -9.5625 C 22.078125 -9.5625 22.59375 -9.738281 22.96875 -10.09375 C 23.351562 -10.445312 23.546875 -10.859375 23.546875 -11.328125 C 23.546875 -11.796875 23.351562 -12.207031 22.96875 -12.5625 C 22.59375 -12.914062 22.078125 -13.09375 21.421875 -13.09375 L 14.828125 -13.09375 C 14.171875 -13.09375 13.648438 -12.914062 13.265625 -12.5625 C 12.890625 -12.207031 12.703125 -11.796875 12.703125 -11.328125 C 12.703125 -10.859375 12.890625 -10.445312 13.265625 -10.09375 C 13.648438 -9.738281 14.171875 -9.5625 14.828125 -9.5625 Z M 10.296875 -14.09375 L 21.421875 -14.09375 C 22.078125 -14.09375 22.59375 -14.269531 22.96875 -14.625 C 23.351562 -14.976562 23.546875 -15.390625 23.546875 -15.859375 C 23.546875 -16.328125 23.351562 -16.738281 22.96875 -17.09375 C 22.59375 -17.445312 22.078125 -17.625 21.421875 -17.625 L 10.296875 -17.625 C 9.640625 -17.625 9.117188 -17.445312 8.734375 -17.09375 C 8.359375 -16.738281 8.171875 -16.328125 8.171875 -15.859375 C 8.171875 -15.390625 8.359375 -14.976562 8.734375 -14.625 C 9.117188 -14.269531 9.640625 -14.09375 10.296875 -14.09375 Z M 14.828125 -23.15625 L 21.421875 -23.15625 C 22.078125 -23.15625 22.59375 -23.332031 22.96875 -23.6875 C 23.351562 -24.039062 23.546875 -24.453125 23.546875 -24.921875 C 23.546875 -25.390625 23.351562 -25.800781 22.96875 -26.15625 C 22.59375 -26.507812 22.078125 -26.6875 21.421875 -26.6875 L 14.828125 -26.6875 C 14.171875 -26.6875 13.648438 -26.507812 13.265625 -26.15625 C 12.890625 -25.800781 12.703125 -25.390625 12.703125 -24.921875 C 12.703125 -24.453125 12.890625 -24.039062 13.265625 -23.6875 C 13.648438 -23.332031 14.171875 -23.15625 14.828125 -23.15625 Z M 14.828125 -23.15625 "/></g></g></g><g fill="#000000" fill-opacity="1"><g transform="translate(258.862343, 67.659504)"><g><path d="M 10.296875 -0.5 L 25.953125 -0.5 C 26.609375 -0.5 27.125 -0.675781 27.5 -1.03125 C 27.882812 -1.382812 28.078125 -1.796875 28.078125 -2.265625 C 28.078125 -2.734375 27.882812 -3.144531 27.5 -3.5 C 27.125 -3.851562 26.609375 -4.03125 25.953125 -4.03125 L 10.296875 -4.03125 C 9.640625 -4.03125 9.117188 -3.851562 8.734375 -3.5 C 8.359375 -3.144531 8.171875 -2.734375 8.171875 -2.265625 C 8.171875 -1.796875 8.359375 -1.382812 8.734375 -1.03125 C 9.117188 -0.675781 9.640625 -0.5 10.296875 -0.5 Z M 5.765625 -5.03125 L 12.359375 -5.03125 C 13.015625 -5.03125 13.53125 -5.207031 13.90625 -5.5625 C 14.289062 -5.914062 14.484375 -6.328125 14.484375 -6.796875 C 14.484375 -7.265625 14.289062 -7.675781 13.90625 -8.03125 C 13.53125 -8.382812 13.015625 -8.5625 12.359375 -8.5625 L 5.765625 -8.5625 C 5.109375 -8.5625 4.585938 -8.382812 4.203125 -8.03125 C 3.828125 -7.675781 3.640625 -7.265625 3.640625 -6.796875 C 3.640625 -6.328125 3.828125 -5.914062 4.203125 -5.5625 C 4.585938 -5.207031 5.109375 -5.03125 5.765625 -5.03125 Z M 23.890625 -5.03125 L 30.484375 -5.03125 C 31.140625 -5.03125 31.65625 -5.207031 32.03125 -5.5625 C 32.414062 -5.914062 32.609375 -6.328125 32.609375 -6.796875 C 32.609375 -7.265625 32.414062 -7.675781 32.03125 -8.03125 C 31.65625 -8.382812 31.140625 -8.5625 30.484375 -8.5625 L 23.890625 -8.5625 C 23.234375 -8.5625 22.710938 -8.382812 22.328125 -8.03125 C 21.953125 -7.675781 21.765625 -7.265625 21.765625 -6.796875 C 21.765625 -6.328125 21.953125 -5.914062 22.328125 -5.5625 C 22.710938 -5.207031 23.234375 -5.03125 23.890625 -5.03125 Z M 5.765625 -9.5625 L 12.359375 -9.5625 C 13.015625 -9.5625 13.53125 -9.738281 13.90625 -10.09375 C 14.289062 -10.445312 14.484375 -10.859375 14.484375 -11.328125 C 14.484375 -11.796875 14.289062 -12.207031 13.90625 -12.5625 C 13.53125 -12.914062 13.015625 -13.09375 12.359375 -13.09375 L 5.765625 -13.09375 C 5.109375 -13.09375 4.585938 -12.914062 4.203125 -12.5625 C 3.828125 -12.207031 3.640625 -11.796875 3.640625 -11.328125 C 3.640625 -10.859375 3.828125 -10.445312 4.203125 -10.09375 C 4.585938 -9.738281 5.109375 -9.5625 5.765625 -9.5625 Z M 23.890625 -9.5625 L 30.484375 -9.5625 C 31.140625 -9.5625 31.65625 -9.738281 32.03125 -10.09375 C 32.414062 -10.445312 32.609375 -10.859375 32.609375 -11.328125 C 32.609375 -11.796875 32.414062 -12.207031 32.03125 -12.5625 C 31.65625 -12.914062 31.140625 -13.09375 30.484375 -13.09375 L 23.890625 -13.09375 C 23.234375 -13.09375 22.710938 -12.914062 22.328125 -12.5625 C 21.953125 -12.207031 21.765625 -11.796875 21.765625 -11.328125 C 21.765625 -10.859375 21.953125 -10.445312 22.328125 -10.09375 C 22.710938 -9.738281 23.234375 -9.5625 23.890625 -9.5625 Z M 5.765625 -14.09375 L 12.359375 -14.09375 C 13.015625 -14.09375 13.53125 -14.269531 13.90625 -14.625 C 14.289062 -14.976562 14.484375 -15.390625 14.484375 -15.859375 C 14.484375 -16.328125 14.289062 -16.738281 13.90625 -17.09375 C 13.53125 -17.445312 13.015625 -17.625 12.359375 -17.625 L 5.765625 -17.625 C 5.109375 -17.625 4.585938 -17.445312 4.203125 -17.09375 C 3.828125 -16.738281 3.640625 -16.328125 3.640625 -15.859375 C 3.640625 -15.390625 3.828125 -14.976562 4.203125 -14.625 C 4.585938 -14.269531 5.109375 -14.09375 5.765625 -14.09375 Z M 23.890625 -14.09375 L 30.484375 -14.09375 C 31.140625 -14.09375 31.65625 -14.269531 32.03125 -14.625 C 32.414062 -14.976562 32.609375 -15.390625 32.609375 -15.859375 C 32.609375 -16.328125 32.414062 -16.738281 32.03125 -17.09375 C 31.65625 -17.445312 31.140625 -17.625 30.484375 -17.625 L 23.890625 -17.625 C 23.234375 -17.625 22.710938 -17.445312 22.328125 -17.09375 C 21.953125 -16.738281 21.765625 -16.328125 21.765625 -15.859375 C 21.765625 -15.390625 21.953125 -14.976562 22.328125 -14.625 C 22.710938 -14.269531 23.234375 -14.09375 23.890625 -14.09375 Z M 10.296875 -18.625 L 25.953125 -18.625 C 26.609375 -18.625 27.125 -18.800781 27.5 -19.15625 C 27.882812 -19.507812 28.078125 -19.921875 28.078125 -20.390625 C 28.078125 -20.859375 27.882812 -21.269531 27.5 -21.625 C 27.125 -21.976562 26.609375 -22.15625 25.953125 -22.15625 L 10.296875 -22.15625 C 9.640625 -22.15625 9.117188 -21.976562 8.734375 -21.625 C 8.359375 -21.269531 8.171875 -20.859375 8.171875 -20.390625 C 8.171875 -19.921875 8.359375 -19.507812 8.734375 -19.15625 C 9.117188 -18.800781 9.640625 -18.625 10.296875 -18.625 Z M 10.296875 -18.625 "/></g></g></g><g fill="#000000" fill-opacity="1"><g transform="translate(38.588388, 91.856157)"><g><path d="M 7.96875 -18.609375 C 9.957031 -18.609375 11.507812 -18.175781 12.625 -17.3125 C 13.738281 -16.457031 14.3125 -15.191406 14.34375 -13.515625 C 14.34375 -11.878906 13.800781 -10.617188 12.71875 -9.734375 C 11.632812 -8.847656 10.179688 -8.390625 8.359375 -8.359375 L 4.515625 -8.359375 L 4.515625 0 L 2.3125 0 L 2.3125 -18.609375 Z M 8.359375 -10.40625 C 9.484375 -10.40625 10.367188 -10.675781 11.015625 -11.21875 C 11.660156 -11.757812 11.984375 -12.515625 11.984375 -13.484375 C 11.984375 -14.441406 11.660156 -15.191406 11.015625 -15.734375 C 10.378906 -16.285156 9.492188 -16.5625 8.359375 -16.5625 L 4.515625 -16.5625 L 4.515625 -10.40625 Z M 8.359375 -10.40625 "/></g></g></g><g fill="#000000" fill-opacity="1"><g transform="translate(56.874029, 91.856157)"><g><path d="M 7.8125 -12.609375 C 9.71875 -12.609375 11.273438 -12.015625 12.484375 -10.828125 C 13.691406 -9.648438 14.320312 -8.09375 14.375 -6.15625 C 14.375 -4.28125 13.757812 -2.738281 12.53125 -1.53125 C 11.3125 -0.332031 9.738281 0.28125 7.8125 0.3125 C 5.882812 0.3125 4.3125 -0.296875 3.09375 -1.515625 C 1.882812 -2.734375 1.265625 -4.28125 1.234375 -6.15625 C 1.234375 -8.039062 1.847656 -9.582031 3.078125 -10.78125 C 4.304688 -11.988281 5.882812 -12.597656 7.8125 -12.609375 Z M 3.4375 -6.15625 C 3.4375 -4.800781 3.84375 -3.707031 4.65625 -2.875 C 5.476562 -2.039062 6.53125 -1.609375 7.8125 -1.578125 C 9.082031 -1.578125 10.117188 -2 10.921875 -2.84375 C 11.734375 -3.695312 12.148438 -4.800781 12.171875 -6.15625 C 12.171875 -7.476562 11.757812 -8.566406 10.9375 -9.421875 C 10.125 -10.285156 9.070312 -10.71875 7.78125 -10.71875 C 6.519531 -10.71875 5.484375 -10.289062 4.671875 -9.4375 C 3.867188 -8.59375 3.457031 -7.5 3.4375 -6.15625 Z M 3.4375 -6.15625 "/></g></g></g><g fill="#000000" fill-opacity="1"><g transform="translate(75.185947, 91.856157)"><g><path d="M 4.171875 -19.875 L 4.171875 0 L 2.125 0 L 2.125 -19.875 Z M 4.171875 -19.875 "/></g></g></g><g fill="#000000" fill-opacity="1"><g transform="translate(84.19776, 91.856157)"><g><path d="M 4.171875 -19.875 L 4.171875 0 L 2.125 0 L 2.125 -19.875 Z M 4.171875 -19.875 "/></g></g></g><g fill="#000000" fill-opacity="1"><g transform="translate(93.209575, 91.856157)"><g><path d="M 2.65625 -12.296875 L 6.46875 -2.65625 L 6.515625 -2.65625 L 10.171875 -12.296875 L 12.40625 -12.296875 L 6.390625 3.015625 C 5.910156 4.242188 5.367188 5.097656 4.765625 5.578125 C 4.160156 6.066406 3.359375 6.3125 2.359375 6.3125 C 1.609375 6.3125 1 6.203125 0.53125 5.984375 L 0.78125 4.203125 C 1.03125 4.347656 1.539062 4.421875 2.3125 4.421875 C 3.289062 4.421875 4 3.816406 4.4375 2.609375 L 5.359375 0.078125 L 0.265625 -12.296875 Z M 2.65625 -12.296875 "/></g></g></g><g fill="#000000" fill-opacity="1"><g transform="translate(108.579089, 91.856157)"><g/></g></g><g fill="#000000" fill-opacity="1"><g transform="translate(118.589218, 91.856157)"><g><path d="M 10.953125 -19.078125 C 13.765625 -19.078125 16.078125 -18.15625 17.890625 -16.3125 C 19.710938 -14.476562 20.644531 -12.140625 20.6875 -9.296875 C 20.664062 -6.410156 19.722656 -4.0625 17.859375 -2.25 C 16.003906 -0.445312 13.703125 0.457031 10.953125 0.46875 C 8.148438 0.46875 5.835938 -0.453125 4.015625 -2.296875 C 2.191406 -4.148438 1.265625 -6.484375 1.234375 -9.296875 C 1.234375 -12.109375 2.144531 -14.429688 3.96875 -16.265625 C 5.789062 -18.109375 8.117188 -19.046875 10.953125 -19.078125 Z M 3.59375 -9.296875 C 3.59375 -7.078125 4.296875 -5.242188 5.703125 -3.796875 C 7.109375 -2.347656 8.859375 -1.609375 10.953125 -1.578125 C 13.054688 -1.578125 14.800781 -2.3125 16.1875 -3.78125 C 17.570312 -5.25 18.28125 -7.085938 18.3125 -9.296875 C 18.3125 -11.453125 17.628906 -13.269531 16.265625 -14.75 C 14.898438 -16.238281 13.125 -17 10.9375 -17.03125 C 8.800781 -17.007812 7.050781 -16.257812 5.6875 -14.78125 C 4.332031 -13.300781 3.632812 -11.472656 3.59375 -9.296875 Z M 3.59375 -9.296875 "/></g></g></g><g fill="#000000" fill-opacity="1"><g transform="translate(143.206286, 91.856157)"><g><path d="M 7.984375 -12.609375 C 8.304688 -12.609375 8.585938 -12.566406 8.828125 -12.484375 L 8.703125 -10.40625 C 8.316406 -10.507812 7.945312 -10.5625 7.59375 -10.5625 C 6.40625 -10.5625 5.507812 -10.171875 4.90625 -9.390625 C 4.300781 -8.609375 4 -7.507812 4 -6.09375 L 4 0 L 1.9375 0 L 1.9375 -9.5625 C 1.9375 -9.8125 1.90625 -10.722656 1.84375 -12.296875 L 3.78125 -12.296875 C 3.820312 -11.066406 3.84375 -10.394531 3.84375 -10.28125 L 3.890625 -10.28125 C 4.222656 -10.976562 4.757812 -11.539062 5.5 -11.96875 C 6.25 -12.394531 7.078125 -12.609375 7.984375 -12.609375 Z M 7.984375 -12.609375 "/></g></g></g><g fill="#000000" fill-opacity="1"><g transform="translate(155.160507, 91.856157)"><g><path d="M 4.171875 -19.875 L 4.171875 0 L 2.125 0 L 2.125 -19.875 Z M 4.171875 -19.875 "/></g></g></g><g fill="#000000" fill-opacity="1"><g transform="translate(164.172322, 91.856157)"><g><path d="M 7.8125 -12.609375 C 9.71875 -12.609375 11.273438 -12.015625 12.484375 -10.828125 C 13.691406 -9.648438 14.320312 -8.09375 14.375 -6.15625 C 14.375 -4.28125 13.757812 -2.738281 12.53125 -1.53125 C 11.3125 -0.332031 9.738281 0.28125 7.8125 0.3125 C 5.882812 0.3125 4.3125 -0.296875 3.09375 -1.515625 C 1.882812 -2.734375 1.265625 -4.28125 1.234375 -6.15625 C 1.234375 -8.039062 1.847656 -9.582031 3.078125 -10.78125 C 4.304688 -11.988281 5.882812 -12.597656 7.8125 -12.609375 Z M 3.4375 -6.15625 C 3.4375 -4.800781 3.84375 -3.707031 4.65625 -2.875 C 5.476562 -2.039062 6.53125 -1.609375 7.8125 -1.578125 C 9.082031 -1.578125 10.117188 -2 10.921875 -2.84375 C 11.734375 -3.695312 12.148438 -4.800781 12.171875 -6.15625 C 12.171875 -7.476562 11.757812 -8.566406 10.9375 -9.421875 C 10.125 -10.285156 9.070312 -10.71875 7.78125 -10.71875 C 6.519531 -10.71875 5.484375 -10.289062 4.671875 -9.4375 C 3.867188 -8.59375 3.457031 -7.5 3.4375 -6.15625 Z M 3.4375 -6.15625 "/></g></g></g><g fill="#000000" fill-opacity="1"><g transform="translate(182.484241, 91.856157)"><g><path d="M 2.625 -12.296875 L 5.4375 -2.84375 L 5.5 -2.84375 L 8.671875 -12.296875 L 10.828125 -12.296875 L 14.0625 -2.84375 L 14.109375 -2.84375 L 16.90625 -12.296875 L 19.109375 -12.296875 L 15.140625 0 L 13.109375 0 L 9.625 -9.46875 L 9.5625 -9.46875 L 6.46875 0 L 4.359375 0 L 0.375 -12.296875 Z M 2.625 -12.296875 "/></g></g></g><g fill="#000000" fill-opacity="1"><g transform="translate(204.658067, 91.856157)"><g><path d="M 5.703125 -12.609375 C 7.660156 -12.597656 9.050781 -11.851562 9.875 -10.375 L 8.171875 -9.25 C 7.578125 -10.226562 6.710938 -10.71875 5.578125 -10.71875 C 4.890625 -10.71875 4.3125 -10.5625 3.84375 -10.25 C 3.382812 -9.9375 3.15625 -9.523438 3.15625 -9.015625 C 3.15625 -8.191406 4.179688 -7.597656 6.234375 -7.234375 C 7.703125 -6.960938 8.742188 -6.53125 9.359375 -5.9375 C 9.972656 -5.34375 10.28125 -4.546875 10.28125 -3.546875 C 10.28125 -2.335938 9.832031 -1.390625 8.9375 -0.703125 C 8.039062 -0.0234375 6.847656 0.3125 5.359375 0.3125 C 4.203125 0.3125 3.25 0.128906 2.5 -0.234375 C 1.757812 -0.597656 1.117188 -1.175781 0.578125 -1.96875 L 2.203125 -3.234375 C 2.710938 -2.617188 3.210938 -2.1875 3.703125 -1.9375 C 4.191406 -1.695312 4.742188 -1.578125 5.359375 -1.578125 C 6.148438 -1.578125 6.796875 -1.75 7.296875 -2.09375 C 7.804688 -2.4375 8.0625 -2.894531 8.0625 -3.46875 C 8.0625 -4.0625 7.796875 -4.503906 7.265625 -4.796875 C 6.734375 -5.097656 5.84375 -5.375 4.59375 -5.625 C 3.375 -5.882812 2.488281 -6.273438 1.9375 -6.796875 C 1.382812 -7.328125 1.109375 -8.054688 1.109375 -8.984375 C 1.109375 -10.015625 1.53125 -10.875 2.375 -11.5625 C 3.226562 -12.25 4.335938 -12.597656 5.703125 -12.609375 Z M 5.703125 -12.609375 "/></g></g></g><g fill="#000000" fill-opacity="1"><g transform="translate(218.556369, 91.856157)"><g><path d="M 4 -19.875 L 4 -6.890625 L 9.59375 -12.296875 L 12.515625 -12.296875 L 6.578125 -6.703125 L 13.109375 0 L 10.09375 0 L 4 -6.46875 L 4 0 L 1.9375 0 L 1.9375 -19.875 Z M 4 -19.875 "/></g></g></g><g fill="#000000" fill-opacity="1"><g transform="translate(234.398762, 91.856157)"><g><path d="M 6.671875 -12.609375 C 8.460938 -12.609375 9.765625 -12.1875 10.578125 -11.34375 C 11.390625 -10.507812 11.804688 -9.242188 11.828125 -7.546875 L 11.828125 -2.03125 C 11.828125 -1.5 11.890625 -0.820312 12.015625 0 L 10.046875 0 C 9.953125 -0.15625 9.90625 -0.769531 9.90625 -1.84375 L 9.859375 -1.84375 C 8.929688 -0.4375 7.582031 0.28125 5.8125 0.3125 C 4.457031 0.3125 3.351562 -0.0195312 2.5 -0.6875 C 1.65625 -1.363281 1.234375 -2.25 1.234375 -3.34375 C 1.234375 -4.832031 1.847656 -5.921875 3.078125 -6.609375 C 4.304688 -7.296875 6.222656 -7.640625 8.828125 -7.640625 L 9.78125 -7.640625 L 9.78125 -7.984375 C 9.78125 -9.773438 8.765625 -10.6875 6.734375 -10.71875 C 5.253906 -10.71875 4.035156 -10.269531 3.078125 -9.375 L 1.78125 -10.71875 C 3.039062 -11.945312 4.671875 -12.578125 6.671875 -12.609375 Z M 3.4375 -3.546875 C 3.4375 -2.160156 4.34375 -1.453125 6.15625 -1.421875 C 7.21875 -1.421875 8.085938 -1.757812 8.765625 -2.4375 C 9.441406 -3.125 9.78125 -4.125 9.78125 -5.4375 L 9.78125 -5.90625 L 7.515625 -5.90625 C 6.304688 -5.90625 5.328125 -5.710938 4.578125 -5.328125 C 3.835938 -4.941406 3.457031 -4.347656 3.4375 -3.546875 Z M 3.4375 -3.546875 "/></g></g></g><g fill="#000000" fill-opacity="1"><g transform="translate(250.746036, 91.856157)"><g/></g></g></svg>